<?xml version="1.0" encoding="utf-8"?>
<!-- Generator: Adobe Illustrator 22.0.1, SVG Export Plug-In . SVG Version: 6.00 Build 0)  -->
<svg version="1.1" id="圖層_4" xmlns="http://www.w3.org/2000/svg" xmlns:xlink="http://www.w3.org/1999/xlink" x="0px" y="0px"
	 viewBox="0 0 334.1 44" style="enable-background:new 0 0 334.1 44;" xml:space="preserve">
<style type="text/css">
	.st0{fill:#009944;}
	.st1{fill:#FFFFFF;}
	.st2{fill:#EA5504;}
</style>
<g>
	<g>
		<g>
			<g>
				<polygon class="st0" points="25.2,27 25.2,22 1.6,22 1.6,40.9 25.2,40.9 25.2,35.9 10.2,35.9 10.2,33.8 25.2,33.8 25.2,29.1 
					10.2,29.1 10.2,27 				"/>
				<polygon class="st0" points="27.7,22 36.8,22 41.6,33.7 46.6,21.9 55.6,21.9 46.8,40.9 36.4,40.9 				"/>
				<path class="st0" d="M72.9,40.9h8.9l-9.7-18.9H61.8l-9.7,19h9l1.3-2.7h9.3L72.9,40.9z M64.7,33.4l2.3-4.6l2.3,4.6H64.7z"/>
				<path class="st0" d="M106.3,40.9h8.9l-9.7-18.9H95.2l-9.7,19h9l1.3-2.7h9.3L106.3,40.9z M98.1,33.4l2.3-4.6l2.3,4.6H98.1z"/>
				<rect x="118.2" y="22" class="st0" width="8.8" height="18.9"/>
				<path class="st0" d="M153.7,32.3c2.2,0,2.2-2.5,2.2-2.5v-3.3c0-4.1-4.4-4.5-4.4-4.5l-20.2,0v18.9h8.8v-6.5h5.8
					c0.4,0,0.7,0.2,0.9,0.4c0.3,0.4,0.3,0.9,0.3,0.9v5.3h8.8v-5.3C155.9,32.5,153.7,32.3,153.7,32.3z M146.1,29.5H140v-2.7h6.1
					c0.8,0,1.4,0.6,1.4,1.4C147.5,28.9,146.9,29.5,146.1,29.5z"/>
			</g>
		</g>
		<path class="st0" d="M187.1,34.1l-1.1-1.4h2.9v-2.4h-17.3v-0.9h15v-1.8h-15v-0.9h15v-1.9h-15v-0.7c0-0.2,0.1-0.3,0.3-0.3h15.5
			v-2.4h-18.3c-0.5,0-0.7,0.2-0.7,0.6v8.4h-3v2.4h2.7v5.5c-0.9,0-1.8,0-2.8,0l0.3,2.6c4.9-0.1,9-0.5,12.2-1.1l-0.9-2.4
			c-1.6,0.4-3.5,0.7-5.7,0.8v-5.4h2.9c2.6,3.3,5.7,5.6,9.1,6.9c1.3,0.4,2.9,0.9,4.9,1.3l1.5-2.4c-3.2-0.4-5.2-1.1-7.1-2
			C183.8,35.9,185.3,35.1,187.1,34.1z M177.8,32.7h6.4c-1.4,0.8-2.8,1.5-4.2,2.2C179.1,34.1,178.4,33.4,177.8,32.7z"/>
		<g>
			<polygon class="st0" points="264,34.8 273.2,34.8 273.2,32.3 251.8,32.3 251.8,34.8 260.8,34.8 260.8,38.3 250.6,38.3 
				250.6,40.9 274.5,40.9 274.5,38.3 264,38.3 			"/>
			<path class="st0" d="M253.6,25.6c0-0.2,0.1-0.3,0.3-0.3h17.3c0.2,0,0.3,0.1,0.3,0.3v2.2h3v-4.5c0-0.3-0.2-0.5-0.6-0.5H264v-1.5
				h-3.2v1.5h-9.7c-0.4,0-0.6,0.2-0.6,0.5v4.5h3V25.6z"/>
			<path class="st0" d="M255.5,28.6h-4.2v2.5l6.5,0c1.1,0,1.9-0.6,2.4-1.6l1.7-3h-3.5l-1.1,1.6C256.9,28.6,256.7,28.6,255.5,28.6z"
				/>
			<path class="st0" d="M263.2,26.5v2.8c0,1.3,0.7,1.8,2.2,1.8h8.3v-2.5h-6.5c-0.4,0-0.6-0.2-0.6-0.5v-1.6H263.2z"/>
		</g>
		<g>
			<path class="st0" d="M217.1,22.4l-2.5-0.8c-0.3,0.8-0.8,1.8-1.6,3.1l2.4,0.9C216.2,24.4,216.8,23.3,217.1,22.4z"/>
			<path class="st0" d="M205.8,22.8c0.4,0.7,0.7,1.6,1.1,2.7l2.6-0.6c-0.4-1.3-0.8-2.4-1.3-3.2l-2.4,0.7l-2.2-0.7
				c-0.3,0.8-0.8,1.9-1.6,3.1l2.4,0.9C204.9,24.6,205.4,23.6,205.8,22.8z"/>
			<path class="st0" d="M198.1,24.9c-0.5-1.3-1.1-2.4-1.7-3.2l-2.4,0.9c0.5,0.7,1,1.8,1.6,3.1L198.1,24.9z"/>
			<path class="st0" d="M217.9,33.9v-4.5c0-0.3-0.2-0.5-0.6-0.5h-0.8l1-1.1c-1.6-1-3.3-1.9-5.1-2.7c0.1-0.4,0.2-0.9,0.2-1.3v-2.5
				h-2.9v2.5c0,1.1-0.7,2.1-2.1,2.8c-0.5,0.3-1.1,0.5-1.7,0.6l1.4,1.6H204l1.3-1.4c-1.3-0.9-2.7-1.7-4.1-2.4
				c0.2-0.6,0.3-1.1,0.3-1.6v-2.2h-2.9v2.2c0,0.9-0.4,1.7-1.2,2.3c-0.8,0.7-2,1.2-3.5,1.6l1.2,1.5h-0.6c-0.4,0-0.6,0.2-0.6,0.5v4.5
				h3v-2.2c0-0.2,0.1-0.3,0.3-0.3h7.2v1.1h-6.5v2.3h5c-2.6,1.3-5.6,2.2-8.9,2.7l1.3,2.4c2.7-0.4,5.7-1.5,9.1-3.2v4.2h3v-4.2
				c2.2,1.3,5.2,2.3,8.7,3.2l1.7-2.3c-3.7-0.7-6.8-1.6-9-2.8h5.1v-2.3h-6.5v-1.1h7.2c0.2,0,0.3,0.1,0.3,0.3v2.2H217.9z M210.2,28.1
				c0.5-0.3,0.9-0.7,1.3-1.1c1.2,0.7,2.2,1.3,3.2,1.9h-6C209.2,28.7,209.7,28.4,210.2,28.1z M200,27c1,0.7,2,1.3,2.8,1.9H197
				C198.1,28.4,199.2,27.8,200,27z"/>
		</g>
		<g>
			<path class="st0" d="M245.2,37.9c-0.5,0-0.6-0.3-0.6-0.5v-9.8l0-0.2c0-0.3-0.2-0.5-0.5-0.5h-7.6c-0.2,0-0.4,0.2-0.4,0.5l0,9.9
				c0,0.3-0.1,0.6-0.6,0.6c0,0-0.1,0-1.2,0l0,3c0,0,2.2,0.1,3-0.1c0,0,1.7-0.3,1.8-3.2v0v-7.9c0-0.2,0.1-0.3,0.3-0.3h1.8
				c0.2,0,0.3,0.1,0.3,0.2v8.2l0,0c0,2.4,1.8,2.8,1.8,2.8c0.8,0.2,3.1,0.1,3.1,0.1v-3C245.3,37.9,245.2,37.9,245.2,37.9z"/>
			<polygon class="st0" points="241.9,21.4 238.8,21.4 238.8,23.3 234.2,23.3 234.2,25.8 246.3,25.8 246.3,23.3 241.9,23.3 			"/>
			<path class="st0" d="M234.9,31.4l-0.3-2.4l-1.1,0.1v-5.8c0-0.5-0.2-0.7-0.8-0.7h-2.8c0.1-0.4,0.2-0.7,0.3-1l-2.9-0.7
				c-0.1,0.5-0.4,1-0.7,1.8h-2.2c-0.5,0-0.7,0.2-0.7,0.7V30l-1.6,0.1l0.5,2.4l1-0.1h0c-0.1,3-0.5,5.6-1.4,7.9l3.2,0.6
				c0.8-2.4,1.2-4.9,1.2-7.5v-1.2l0.7-0.1v5.4h2.4v-5.6l0.7-0.1v6.5c0,0.1-0.1,0.2-0.3,0.3c-0.2,0.1-1.1,0-2.6-0.3l0.5,2.6
				c1.9,0.1,3.1,0.1,3.5,0.1c0.4-0.1,0.8-0.2,1.3-0.5c0.2-0.1,0.4-0.4,0.4-0.4c0.2-0.2,0.3-1.5,0.3-1.5v-7l0,0L234.9,31.4z
				 M230.4,29.4l-3.7,0.3v-2.8c0.7,1.1,1.3,1.9,1.6,2.4l2.1-0.7V29.4z M230.4,27.8c-0.2-0.3-0.5-0.7-0.7-1.1
				c-0.4-0.6-0.7-1.1-0.9-1.3l-2.1,0.8v-1c0-0.2,0.1-0.3,0.3-0.3h3.1c0.2,0,0.3,0.1,0.3,0.3V27.8z"/>
		</g>
	</g>
	<g>
		<path class="st1" d="M332.5,1.8l-22.7,0l-31.7,40.5l40.3,0L332.5,1.8z"/>
		<g>
			<path class="st1" d="M293.1,25.8c1.6,5.2,6.5,9,12.2,9c7.1,0,12.8-5.7,12.8-12.8c0-6.8-5.3-12.4-12-12.8L293.1,25.8z"/>
			<g>
				<path class="st0" d="M310.4,3.1l-29.6,37.8h36.6l13.2-37.8H310.4z M305.3,35.3c-5.6,0-10.5-3.5-12.5-8.7v0l14-17.9h0
					c6.7,0.8,11.8,6.4,11.8,13.2C318.6,29.3,312.6,35.3,305.3,35.3"/>
				<path class="st2" d="M306.8,8.8l-0.3,0.4l-0.2,0.3l-0.1,0.1L306,9.8c1.5,0.7,2.7,1.7,3.8,2.8c-0.5,0.4-1.1,0.7-1.7,1
					c-0.6-1.3-1.3-2.6-2.1-3.8l-0.3,0.4c0.8,1.1,1.5,2.3,2,3.6c-0.7,0.2-1.5,0.4-2.2,0.4v-3.7l-0.4,0.5v3.2c-0.7,0-1.5-0.2-2.2-0.4
					c0,0-1,1.3-1,1.3c-0.3,0.9-0.6,1.8-0.8,2.8c-0.4-0.1-0.8-0.2-1.2-0.3l-0.3,0.4c0.5,0.1,0.9,0.2,1.4,0.3
					c-0.2,1.2-0.3,2.3-0.3,3.5H297l0-0.5l-0.7,0.9h0.3c0,1.6,0.3,3.1,0.8,4.5c-1,0.4-2,0.8-3,1.4c-0.4-0.7-0.7-1.4-1-2.2l-0.3,0.4
					l-0.3,0.4c1.9,5.2,6.9,8.7,12.5,8.7c7.3,0,13.3-6,13.3-13.3C318.6,15.2,313.5,9.5,306.8,8.8 M317.8,21.8H314
					c0-1.6-0.3-3.1-0.8-4.5c1-0.4,2.1-0.8,3-1.4C317.2,17.6,317.8,19.6,317.8,21.8 M301.2,22.2h3.9v3.1c-1.2,0-2.4,0.1-3.6,0.3
					C301.3,24.5,301.2,23.4,301.2,22.2 M305.5,18.7c1.2,0,2.4-0.1,3.6-0.3c0.2,1.1,0.3,2.3,0.3,3.4h-3.9V18.7z M309.4,22.2
					c0,1.2-0.1,2.3-0.3,3.4c-1.2-0.2-2.4-0.3-3.6-0.3v-3.1H309.4z M301.5,26.1c1.2-0.2,2.3-0.3,3.5-0.3v3.7c-0.8,0-1.6,0.2-2.4,0.4
					C302.2,28.6,301.8,27.4,301.5,26.1 M302.3,30c-0.7,0.3-1.3,0.6-1.8,1.1c-1.1-1.2-1.9-2.6-2.5-4.1c1-0.4,2.1-0.6,3.2-0.8
					C301.4,27.5,301.8,28.8,302.3,30 M305.5,25.7c1.2,0,2.4,0.1,3.5,0.3c-0.3,1.3-0.6,2.6-1.1,3.8c-0.8-0.3-1.6-0.4-2.4-0.4V25.7z
					 M309.5,26.1c1.1,0.2,2.1,0.5,3.2,0.8c-0.6,1.5-1.4,2.9-2.5,4.1c-0.6-0.4-1.2-0.8-1.8-1.1C308.8,28.7,309.2,27.5,309.5,26.1
					 M309.5,25.7c0.2-1.1,0.3-2.3,0.3-3.5h3.7c0,1.5-0.3,3-0.8,4.4C311.7,26.2,310.6,25.9,309.5,25.7 M309.9,21.8
					c0-1.2-0.1-2.4-0.3-3.5c1.1-0.2,2.2-0.5,3.2-0.9c0.5,1.4,0.8,2.9,0.8,4.4H309.9z M316,15.5c-1,0.5-1.9,1-3,1.3
					c-0.6-1.5-1.5-2.9-2.6-4.2c0.5-0.4,0.9-0.9,1.3-1.4C313.5,12.3,314.9,13.8,316,15.5 M306.5,9.5c1.8,0.2,3.4,0.7,4.9,1.5
					c-0.4,0.5-0.8,0.9-1.2,1.3C309.1,11.2,307.9,10.3,306.5,9.5 M310.1,13c1.1,1.2,1.9,2.6,2.5,4c-1,0.4-2.1,0.6-3.2,0.8
					c-0.3-1.3-0.6-2.6-1.2-3.8C309,13.7,309.6,13.4,310.1,13 M307.9,14.2c0.5,1.2,0.9,2.5,1.1,3.8c-1.2,0.2-2.3,0.3-3.5,0.3v-3.6
					C306.3,14.6,307.1,14.4,307.9,14.2 M302.7,14.1c0.8,0.3,1.6,0.4,2.4,0.4v3.6c-1.2,0-2.4-0.1-3.5-0.3
					C301.8,16.6,302.2,15.4,302.7,14.1 M301.5,18.3c1.2,0.2,2.4,0.3,3.6,0.3v3.1h-3.9C301.2,20.6,301.3,19.5,301.5,18.3 M297,22.2
					h3.7c0,1.2,0.1,2.4,0.3,3.5c-1.1,0.2-2.2,0.5-3.2,0.9C297.3,25.2,297,23.7,297,22.2 M297.5,27.1c0.6,1.5,1.5,3,2.6,4.2
					c-0.5,0.4-0.9,0.9-1.3,1.4c-1.7-1-3.2-2.5-4.3-4.2C295.5,28,296.5,27.5,297.5,27.1 M299.2,32.9c0.3-0.5,0.7-0.9,1.2-1.3
					c1.1,1.1,2.3,2.1,3.7,2.8C302.4,34.3,300.7,33.7,299.2,32.9 M300.7,31.4c0.5-0.4,1.1-0.7,1.7-1c0.6,1.3,1.3,2.6,2.2,3.8
					C303.1,33.5,301.8,32.5,300.7,31.4 M305.1,34.1c-0.9-1.2-1.6-2.5-2.2-3.9c0.7-0.2,1.5-0.4,2.2-0.4V34.1z M305.5,29.8
					c0.8,0,1.5,0.2,2.2,0.4c-0.6,1.4-1.3,2.7-2.2,3.9V29.8z M308.1,30.4c0.6,0.2,1.2,0.6,1.7,1c-1.1,1.2-2.4,2.1-3.9,2.9
					C306.8,33,307.6,31.7,308.1,30.4 M306.5,34.4c1.4-0.7,2.7-1.7,3.7-2.8c0.4,0.4,0.8,0.8,1.2,1.3
					C309.9,33.7,308.2,34.3,306.5,34.4 M311.7,32.7c-0.4-0.5-0.8-1-1.3-1.4c1.1-1.2,2-2.6,2.6-4.2c1,0.4,2,0.8,2.9,1.3
					C314.9,30.2,313.5,31.6,311.7,32.7 M316.2,28.1c-1-0.5-2-1-3-1.4c0.5-1.4,0.8-2.9,0.8-4.5h3.8C317.8,24.3,317.2,26.3,316.2,28.1
					"/>
				<polygon class="st1" points="306.6,25 309.7,26.4 308.3,23.2 312.3,22.2 312.3,21.8 308.3,20.7 309.8,17.5 306.6,19 305.6,13.2 
					305,13.2 304,19 300.8,17.5 302.3,20.7 298.3,21.8 298.3,22.2 302.3,23.2 300.9,26.4 304,25 305,30.8 305.5,30.8 				"/>
				<polygon class="st0" points="305.3,13.5 306.4,19.4 309.2,18.1 307.8,20.9 312.1,22 307.8,23 309.1,25.8 306.4,24.5 305.3,30.4 
					304.2,24.5 301.5,25.8 302.7,23 298.5,22 302.7,20.9 301.4,18.1 304.2,19.4 				"/>
			</g>
		</g>
	</g>
</g>
</svg>
