<?xml version="1.0" encoding="utf-8"?>
<!-- Generator: Adobe Illustrator 22.0.1, SVG Export Plug-In . SVG Version: 6.00 Build 0)  -->
<svg version="1.1" id="圖層_1" xmlns="http://www.w3.org/2000/svg" xmlns:xlink="http://www.w3.org/1999/xlink" x="0px" y="0px"
	 viewBox="0 0 292.4 77" style="enable-background:new 0 0 292.4 77;" xml:space="preserve">
<style type="text/css">
	.st0{fill:#42E8E8;}
</style>
<g>
	<path class="st0" d="M295.4,56.9c0,0-2.2,0-4.9,0c-7,0-10.3,3.6-14.6,8.2c-4.9,5.3-10.4,11.3-21.5,11.3c-11,0-16.6-6-21.5-11.3
		c-4.2-4.6-7.6-8.2-14.6-8.2s-10.3,3.6-14.6,8.2c-4.9,5.3-10.4,11.3-21.5,11.3c-11,0-16.6-6-21.5-11.3c-4.2-4.6-7.6-8.2-14.6-8.2
		s-10.3,3.6-14.6,8.2c-4.9,5.3-10.4,11.3-21.5,11.3c-11,0-16.6-6-21.5-11.3c-4.2-4.6-7.6-8.2-14.5-8.2c-7,0-10.3,3.6-14.5,8.2
		C54.6,70.4,49.1,76.4,38,76.4c-11,0-16.6-6-21.5-11.3c-4.2-4.6-7.6-8.2-14.6-8.2c-2.7,0-4.9,0-4.9,0l0-10.8c0,0,3.6,0,4.9,0
		c11,0,16.6,6,21.5,11.3c4.2,4.6,7.6,8.2,14.5,8.2c7,0,10.3-3.6,14.5-8.2c4.9-5.3,10.4-11.3,21.5-11.3c11,0,16.6,6,21.5,11.3
		c4.2,4.6,7.6,8.2,14.5,8.2c7,0,10.3-3.6,14.6-8.2c5.3-5.3,10.9-11.3,21.9-11.3s16.6,6,21.5,11.3c4.2,4.6,7.6,8.2,14.6,8.2
		s10.3-3.6,14.6-8.2c4.7-5.3,10.3-11.3,21.3-11.3s16.6,6,21.5,11.3c4.2,4.6,7.6,8.2,14.6,8.2s10.3-3.6,14.6-8.2
		c4.9-5.3,10.4-11.3,21.5-11.3c1.7,0,4.8,0,4.8,0L295.4,56.9z"/>
	<path class="st0" d="M295.4,11.5c0,0-2.2,0-4.9,0c-7,0-10.3,3.6-14.6,8.2C271,25,265.5,31,254.4,31c-9.3,0-14.8-4.4-19-8.7
		c-0.9-0.9-1.7-1.8-2.5-2.7c-2.5-2.7-4.8-5.2-7.8-6.7c-2-1-4.2-1.5-6.7-1.5c-7,0-10.3,3.6-14.6,8.2c-4.9,5.3-10.4,11.3-21.5,11.3
		s-16.6-6-21.5-11.3c-0.9-0.9-1.7-1.8-2.5-2.6l-0.6-0.6c-3.2-3.1-6.3-5-11.4-5c-0.3,0-0.6,0-0.9,0c-6.3,0.3-9.6,3.8-13.6,8.2
		c-4.9,5.3-10.4,11.3-21.5,11.3c-8.8,0-14.1-4-17.7-7.4c-1.4-1.3-2.6-2.6-3.8-3.9c-0.5-0.5-0.9-1-1.4-1.6c-2.3-2.4-4.3-4.2-6.8-5.4
		c-1.9-0.9-3.9-1.3-6.3-1.3c-5.3,0-8.5,2.1-11.7,5.2c-0.9,0.8-1.7,1.8-2.7,2.8l-0.2,0.3c-3.8,4.1-8.1,8.8-15.1,10.6
		c-2,0.5-4.1,0.8-6.4,0.8c-6.1,0-11.2-1.8-15.9-5.8c-2.1-1.8-3.9-3.8-5.6-5.5c-4.2-4.6-7.6-8.2-14.5-8.2c-2.7,0-5.2,0-5.2,0l0-10.9
		c0,0,3.8,0,5.2,0c11,0,16.6,6,21.5,11.3l0.1,0.1c1.9,2,3.7,4,5.7,5.4c2.6,1.9,5.4,2.7,8.8,2.7c2.5,0,4.6-0.4,6.5-1.4
		c3.1-1.5,5.5-4.1,8-6.8l0,0l0.2-0.2c1.5-1.6,3-3.2,4.7-4.7c4.5-4,9.3-6,14.9-6.3c0.5,0,1,0,1.6,0c11,0,16.6,6,21.5,11.3
		c4.2,4.6,7.6,8.2,14.5,8.2c7,0,10.3-3.6,14.5-8.2c4.7-5.1,10-10.9,20.3-11.3c0.4,0,0.8,0,1.2,0c8.5,0,13.6,3.6,17,6.8
		c1.5,1.4,2.9,2.9,4.4,4.5c4.2,4.6,7.6,8.2,14.6,8.2s10.3-3.6,14.6-8.2c4.9-5.3,10.4-11.3,21.5-11.3c3.6,0,6.8,0.6,9.8,2
		c2.6,1.1,5,2.7,7.4,5c1.5,1.4,2.8,2.8,4.2,4.3l0.3,0.3c0.9,1,1.8,2,2.7,2.8c1.3,1.3,2.5,2.2,3.6,2.9c2.4,1.5,4.9,2.2,8,2.2
		c7,0,10.3-3.6,14.5-8.2c4.9-5.3,10.4-11.4,21.5-11.4c1.7,0,5.1,0,5.1,0V11.5z"/>
</g>
</svg>
