<?xml version="1.0" encoding="utf-8"?>
<!-- Generator: Adobe Illustrator 22.0.1, SVG Export Plug-In . SVG Version: 6.00 Build 0)  -->
<svg version="1.1" id="圖層_1" xmlns="http://www.w3.org/2000/svg" xmlns:xlink="http://www.w3.org/1999/xlink" x="0px" y="0px"
	 viewBox="0 0 292.3 30.6" style="enable-background:new 0 0 292.3 30.6;" xml:space="preserve">
<style type="text/css">
	.st0{fill:#2BBBBE;}
</style>
<g>
	<path class="st0" d="M296.3,11c0,0-3.2,0-5.9,0c-7,0-10.3,3.6-14.6,8.2c-4.9,5.3-10.4,11.3-21.5,11.3c-11,0-16.6-6-21.5-11.3
		c-4.2-4.6-7.5-8.2-14.5-8.2s-10.3,3.6-14.6,8.2c-4.9,5.3-10.4,11.3-21.5,11.3c-11,0-16.6-6-21.5-11.3C156.4,14.6,153,11,146,11
		s-10.3,3.6-14.6,8.2c-4.9,5.3-10.4,11.3-21.5,11.3c-11,0-16.6-6-21.5-11.3c-3.9-4.6-7.3-8.2-14.2-8.2c-7,0-10.3,3.6-14.5,8.2
		c-5,5.3-10.5,11.3-21.6,11.3c-11,0-16.6-6-21.5-11.3C12.4,14.6,9.1,11,2.2,11c-2.7,0-5.9,0-5.9,0V0.1c0,0,4.2,0,5.9,0
		c11,0,16.6,6,21.5,11.3c4.2,4.6,7.6,8.2,14.5,8.2c7,0,10.3-3.6,14.5-8.2c5-5.3,10.5-11.3,21.6-11.3c11,0,16.6,6,21.5,11.3
		c4.2,4.6,7.6,8.2,14.5,8.2c7,0,10.3-3.6,14.6-8.2c4.9-5.3,10.4-11.3,21.5-11.3s16.6,6,21.5,11.3c4.2,4.6,7.6,8.2,14.6,8.2
		s10.3-3.6,14.6-8.2c4.6-5.3,10.2-11.3,21.2-11.3s16.6,6,21.5,11.3c4.2,4.6,7.6,8.2,14.6,8.2s10.3-3.6,14.6-8.2
		c4.9-5.3,10.4-11.3,21.5-11.3c1.6,0,5.9,0,5.9,0L296.3,11z"/>
</g>
</svg>
