<?xml version="1.0" encoding="utf-8"?>
<!-- Generator: Adobe Illustrator 22.0.1, SVG Export Plug-In . SVG Version: 6.00 Build 0)  -->
<svg version="1.1" id="layout002" xmlns="http://www.w3.org/2000/svg" xmlns:xlink="http://www.w3.org/1999/xlink" x="0px" y="0px"
	 viewBox="0 0 608.2 126.2" style="enable-background:new 0 0 608.2 126.2;" xml:space="preserve">
<style type="text/css">
	.st0{fill-rule:evenodd;clip-rule:evenodd;fill:#FFAA00;}
	.st1{fill:#FFFFFF;}
</style>
<g>
	<polygon class="st0" points="398.6,8.8 4,8.8 43.9,63.1 4,117.4 398.6,117.4 	"/>
	<path class="st1" d="M120,91.4h-30V35.9h11.4v45.3H120V91.4z"/>
	<path class="st1" d="M157,91.4h-30.2V35.9h29.1v10.2h-17.7v12.3h16.5v10.1h-16.5v12.7H157V91.4z"/>
	<path class="st1" d="M200.5,46.1h-14.4v45.3h-11.4V46.1h-14.3V35.9h40.1V46.1z"/>
	<path class="st1" d="M219.1,34.6l-6.8,17.2h-6.8l4-17.2H219.1z"/>
	<path class="st1" d="M225.9,89.2V76.9c2,1.9,4.3,3.3,6.6,4.2c2.4,0.9,4.8,1.4,7.2,1.4c1.4,0,2.7-0.1,3.7-0.4c1.1-0.3,2-0.7,2.7-1.2
		c0.7-0.5,1.2-1.1,1.6-1.8c0.4-0.7,0.5-1.4,0.5-2.2c0-1.1-0.3-2.1-0.8-2.9c-0.6-0.9-1.3-1.6-2.3-2.4c-1-0.7-2.1-1.4-3.5-2.1
		c-1.3-0.7-2.8-1.4-4.3-2.1c-3.9-1.8-6.9-4-8.8-6.6c-1.9-2.6-2.9-5.8-2.9-9.4c0-2.9,0.5-5.4,1.6-7.4c1.1-2.1,2.5-3.8,4.3-5.1
		c1.8-1.3,3.9-2.3,6.3-3c2.4-0.6,4.9-0.9,7.6-0.9c2.6,0,5,0.2,7,0.5c2,0.3,3.9,0.9,5.6,1.6v11.6c-0.8-0.6-1.8-1.2-2.8-1.7
		c-1-0.5-2-0.9-3.1-1.2c-1.1-0.3-2.1-0.6-3.1-0.7c-1-0.2-2-0.2-3-0.2c-1.3,0-2.5,0.1-3.5,0.4s-1.9,0.7-2.7,1.1
		c-0.7,0.5-1.3,1.1-1.7,1.8c-0.4,0.7-0.6,1.5-0.6,2.3c0,0.9,0.2,1.8,0.7,2.5c0.4,0.7,1.1,1.4,1.9,2.1s1.8,1.3,3,1.9
		c1.2,0.6,2.5,1.3,4,2c2,0.9,3.8,1.9,5.4,3c1.6,1,3,2.2,4.1,3.5s2,2.8,2.6,4.5c0.6,1.7,0.9,3.7,0.9,5.9c0,3.1-0.5,5.7-1.6,7.8
		c-1.1,2.1-2.5,3.8-4.3,5.1c-1.8,1.3-4,2.2-6.4,2.8c-2.4,0.6-5,0.9-7.7,0.9c-2.8,0-5.4-0.3-7.9-0.8C229.9,91,227.7,90.3,225.9,89.2z
		"/>
	<path class="st1" d="M298.3,76.4h-13l4,2.8c-1.8,6.7-3.9,12.2-6.3,16.4l-5.2-4.1c2.6-4.7,4.7-9.8,6-15.1h-3.6V28.2h18.1V76.4z
		 M292.3,42.3v-7.4h-6.1v7.4H292.3z M292.3,56v-7.5h-6.1V56H292.3z M292.3,69.9v-7.8h-6.1v7.8H292.3z M301.2,90.8l-5.7,2.6
		c-1-4.3-2.7-8.7-5.2-13.3l5.2-2.6C297.6,81,299.5,85.5,301.2,90.8z M341.4,83h-4.5v5.1c0,2.6-0.5,4.5-1.5,5.7c-1,1.2-3,1.8-6,1.8
		c-1.2,0-2.7-0.1-4.5-0.3l-2.1-6.7c1.2,0.1,2.5,0.2,3.8,0.2c2.1,0,3.3-0.1,3.6-0.4c0.3-0.3,0.5-0.7,0.5-1.4V83h-20.4v12.5H304V83
		h-4.3v-5.6h4.3V59.1h13.5v-4.3h-17.6v-5.6h9.5v-3.9h-6v-5.1h6v-3.8h-7.6V31h7.6v-4.5h6.2V31H326v-4.5h6.2V31h8.6v5.4h-8.6v3.8h5.8
		v5.1h-5.8v3.9h9.2v5.6h-17.5v4.3h12.9v18.3h4.5V83z M317.5,68.5v-3.6h-7.3v3.6H317.5z M317.5,77.4v-3.7h-7.3v3.7H317.5z M326,40
		v-3.6h-10.4V40H326z M326,49.2v-3.9h-10.4v3.9H326z M330.7,68.5v-3.6h-6.8v3.6H330.7z M330.7,77.4v-3.7h-6.8v3.7H330.7z"/>
	<path class="st1" d="M584.2,74.3c7.9-1.1,14.5-3.8,17.9-7.1c1.1-1.1,1.7-2.1,1.9-3.2c0-0.1,0.1-0.4,0.1-0.8c0-0.4-0.1-0.7-0.1-0.8
		c-0.2-1.1-0.9-2.2-1.9-3.2c-3.3-3.3-10-6-17.9-7.1c-6.4-0.9-13.8-0.7-24.2-0.4c-1.8,0-3.6,0.1-5.5,0.1L547.7,39l0.1,0
		c0.8,0,1.6-0.3,2.2-0.9c0.6-0.6,0.9-1.4,0.9-2.2l0-3.5c0-0.8-0.3-1.6-0.9-2.2c-0.6-0.6-1.4-0.9-2.2-0.9h-5.3l-1-1.8
		c0.7-0.1,1.3-0.4,1.8-0.9c0.6-0.6,0.9-1.4,0.9-2.2l0-3.5c0-0.8-0.3-1.6-0.9-2.2c-0.6-0.6-1.4-0.9-2.2-0.9h-4.8l-6.9-12.9
		c-0.2-0.3-0.4-0.6-0.6-0.8C528,3.4,527.1,3,526.1,3l-7,0c-0.8,0-1.5,0.3-2,0.8c-0.8,0.7-1,1.8-0.7,2.9l9.2,32.5
		c0,0.2,0.1,0.7,0.1,0.9V52c-11.4,0.3-22,1-30.8,2.1c-0.8,0.1-1.6,0.2-2.4,0.3l-14.7-17.6c-0.1-0.1-0.1-0.2-0.3-0.3
		c-0.8-0.7-1.8-1.2-2.8-1.2h-3.2c-0.8,0-1.6,0.3-2.1,0.8c-0.8,0.8-1,2-0.6,3l6,16.7c0,0.1,0.1,0.6,0.1,0.7l0,1.9
		c-1.1,0.5-2,1.1-2.6,1.7c-0.8,0.8-1.3,1.8-1.3,2.9l0,0.1l0,0c0,1,0.4,2,1.3,2.9c0.6,0.6,1.5,1.2,2.6,1.7l0,1.9
		c0,0.2-0.1,0.6-0.1,0.7l-5.9,16.7c-0.4,1.1-0.2,2.2,0.6,3l0,0c0.5,0.5,1.3,0.8,2,0.8l3.3,0c1,0,2-0.5,2.8-1.2
		c0.1-0.1,0.2-0.2,0.2-0.2l14.7-17.7c0.8,0.1,1.6,0.2,2.4,0.3c8.8,1.1,19.4,1.8,30.8,2.1l0,11.9c0,0.2-0.1,0.7-0.1,0.9l-9.2,32.4
		c-0.3,1,0,2.1,0.7,2.9c0.5,0.5,1.3,0.8,2.1,0.8l7,0c0.9,0,1.8-0.4,2.5-1.1c0.2-0.2,0.4-0.5,0.6-0.8l7-12.9l4.8,0
		c0.8,0,1.6-0.3,2.2-0.9c0.6-0.6,0.9-1.4,0.9-2.2v-3.5c0-0.8-0.3-1.6-0.9-2.2c-0.5-0.5-1.1-0.8-1.8-0.9l1-1.8h5.3
		c0.8,0,1.6-0.3,2.2-0.9s0.9-1.4,0.9-2.2l0-3.5c0-0.8-0.3-1.6-0.9-2.2c-0.6-0.6-1.4-0.9-2.2-0.9l0,0l6.8-12.7c2,0.1,3.8,0.1,5.6,0.1
		C570.5,75,577.9,75.2,584.2,74.3L584.2,74.3z M584.2,74.3"/>
	<path class="st1" d="M396.7,119.2c-0.5,0-0.9-0.2-1.2-0.6c-0.5-0.7-0.3-1.6,0.4-2.1L471,63.2L395.8,9.9c-0.7-0.5-0.8-1.4-0.4-2.1
		c0.5-0.7,1.4-0.8,2.1-0.4L474.4,62c0.4,0.3,0.6,0.7,0.6,1.2s-0.2,0.9-0.6,1.2l-76.9,54.5C397.3,119.1,397,119.2,396.7,119.2z"/>
</g>
</svg>
