<?xml version="1.0" encoding="utf-8"?>
<!-- Generator: Adobe Illustrator 22.0.1, SVG Export Plug-In . SVG Version: 6.00 Build 0)  -->
<svg version="1.1" id="圖層_1" xmlns="http://www.w3.org/2000/svg" xmlns:xlink="http://www.w3.org/1999/xlink" x="0px" y="0px"
	 viewBox="0 0 647.2 500.5" style="enable-background:new 0 0 647.2 500.5;" xml:space="preserve">
<style type="text/css">
	.st0{fill:#062A48;}
	.st1{fill:#42E8E8;}
	.st2{fill:#FFD833;}
	.st3{fill:#FFFFFF;}
	.st4{fill:#EB6348;}
</style>
<g>
	<g>
		<g>
			<g>
				<path class="st0" d="M288.4,221.8c-3.3,1-7.5,1.9-12.9,2.4c-2.7,0.3-5,0.3-7.2,0.3c5.1-3,10.5-3.7,14.6-3.7
					C284.8,220.8,286.7,221.2,288.4,221.8z"/>
				<g>
					<path class="st0" d="M296.2,218.4c-1,0.8-3.5,2.2-7.7,3.5l0,0c-3.3,1-7.5,1.9-12.9,2.4c-2.7,0.3-5,0.3-7.2,0.3
						c-7.5-0.1-11.9-1.5-13.8-2.3c2-1.3,7.3-4.1,17-5.4c0.8-0.1,1.5-0.2,2.3-0.3c0.3,0,0.6-0.1,0.9-0.1c3.6-0.3,6.7-0.4,9.4-0.3
						c0.5,0,1,0,1.4,0.1C291.5,216.5,294.9,217.7,296.2,218.4z"/>
					<path class="st0" d="M265.8,198.2c0.1-0.1,0.2-0.2,0.3-0.2c0.6-0.2,1.3,0.1,1.8,0.6l0.1,0.1c0.8,0.3,1.6,0.7,2.3,1
						c2.2,0.9,4.5,1.9,6.9,1.7c0.5,0,1.1-0.2,1.3-0.7c0.1-0.4-0.2-0.9-0.5-1.1c-0.1-0.1-0.3-0.2-0.4-0.3c-1.7-0.1-3.4-0.5-5-1.1
						c-0.9-0.3-1.8-0.9-1.8-1.8c1.5,0.8,3.4,0.9,4.9,0.3c-0.9,0-1.9-0.2-2.8-0.4c0.9,0.1,1.7-0.1,2.5-0.4c-1.2,0-2.3-0.3-3.3-0.9
						c-0.1-0.1-0.3-0.3-0.1-0.4c2.2,0.7,4.6,0.7,6.8,0c0.3-0.1,0.6-0.2,0.9-0.3c0.2,0,0.5,0,0.7,0c0.1,0,0.2,0,0.3,0
						c1.2,0,2.3,0.9,2.6,2.1c0.3,1.2-0.3,2.5-1.3,3.1c-0.4,0.2-0.9,0.4-1.3,0.7s-0.5,1-0.2,1.3c3.4,0.7,7,0.4,10.2-0.8
						c0.3-0.1,0.6-0.1,0.8-0.1c0.3-0.1,0.5-0.2,0.8-0.3c0.5-0.2,1.1-0.3,1.6-0.2s1,0.7,0.7,1.2c-0.1,0.3-0.5,0.5-0.9,0.5
						c-0.3,0-0.7-0.1-1-0.2c-0.3-0.1-0.7-0.2-1-0.4c-0.1,0.1-0.3,0.2-0.5,0.3c-3.4,1.3-7.1,2.6-10.6,1.7c-1.5,2-2.5,4.4-2.9,6.9
						c1.2,0.4,2.5,0.6,3.9,0.5c1.2-0.1,2.6-0.2,3.3,0.7c0.3,0.4,0.4,1,0.4,1.6c0.2,2.2,0.3,4.5,0.2,6.8c-0.5-0.4-1.1-0.6-1.7-0.6
						c0.3-1.8,0.3-3.6,0.1-5.4c0-0.3-0.1-0.5-0.3-0.7c-0.2-0.2-0.4-0.2-0.7-0.2c-2-0.2-3.9-0.3-5.9-0.5c-0.3,0-0.7,0-1,0.1
						c-0.3,0.2-0.4,0.4-0.6,0.7c-0.8,1.4-1.5,2.8-2.1,4.3c-0.7-0.3-1.4-0.6-2-0.9c1.6-2.6,2.5-5.5,3.3-8.5c0.4-1.6,0.9-3.1,1.3-4.7
						c0-0.1,0.1-0.3,0-0.4c-0.1-0.1-0.2-0.2-0.4-0.2c-2-0.6-4-1.3-6-1.9c-0.6-0.2-1.1-0.4-1.6-0.8c-0.1-0.1-0.2-0.2-0.3-0.3h-0.1
						c-0.7-0.2-1.6-0.5-1.9-1.2C265.8,198.5,265.8,198.3,265.8,198.2z"/>
				</g>
			</g>
			<g>
				<g>
					<path class="st0" d="M179.9,268.5c0,11.5-1.9,27.5-2.6,37.1c-1.2,16.1-8.8,21.1-12.4,22c-3.7,0.9-12.6,1.9-17.7-3.4
						c-6.4-6.7-6.3-17.8-2.4-22.8c5.3-6.8,11.2-6.8,14.1-11c1.6-2.3,2-8.3,2-13.3c0-4.3-0.6-7.8-8.3-7.8h-17.9v100.3
						c0,6.5-5.4,11.9-11.9,11.9c-6.5,0-11.9-5.3-11.9-11.9V269.3H97c-0.4,0-0.8-0.1-1.2-0.2v46.4c0,7-5.7,12.8-12.7,12.8
						s-12.7-5.7-12.7-12.8v-30c-4.1,4.2-8.2,8.1-12.3,11.6c-9.5,8.1-31.6,18.6-40.5,3c-10.1-17.6,12.6-26.4,22.8-30.7
						c10.8-4.5,28.5-13.5,39.9-31.4c3.5-5.6,6.3-11.8,8.5-17.7H66.3c-4.7,0-8.5-3.8-8.5-8.5c0-2.3,1-4.5,2.5-6s3.7-2.5,6-2.5h28.1
						c3-9.2,5.2-15.5,6.4-22.4c1.7-9.3,6.5-11.1,10.9-9.9c6.8,1.8,5.9,8.9,4.6,16.5c-0.4,2.2-1,8.4-2.1,15.9H161
						c4.7,0,8.5,3.8,8.5,8.5c0,2.3-1,4.5-2.5,6s-3.7,2.5-6,2.5h-50.3c-0.7,2.5-1.5,5-2.3,7.4c-3,8.3-7.3,16.7-12.3,24.8
						c0.3-0.1,0.6-0.1,0.9-0.1h14.1v-5.6c0-6.5,5.3-11.9,11.9-11.9c3.3,0,6.2,1.3,8.4,3.5c2.1,2.1,3.5,5.1,3.5,8.4v5.6h29.8
						C180.8,252.4,179.9,264.1,179.9,268.5z"/>
				</g>
				<g>
					<path class="st0" d="M284.4,340c0.5,2.2,1.6,4.1,3,5.7c2.1,2.4,5,3.8,8.2,3.8c6.4,0,11.5-5.9,11.5-13.1v-68.9
						c0-7-5-12.8-11.3-12.8h-5.5c-12.3-2.5-15.8-16.3-6.6-21.5c6.3-3.5,10.9-1.5,13.4,0.5c0.9,0.7,2.1-0.1,1.9-1.2
						c-1.1-4.5-5.4-8.8-10.5-10.8l0,0c-3.3,1-7.5,1.9-12.9,2.4c-2.7,0.3-5,0.3-7.2,0.3c-4.1,2.4-8.1,6.3-11,12.4
						c-5.7,11.8-15.8,16.6-19.2,18h-33c-0.1,0-0.2,0-0.3,0c-6,0.2-10.8,5.1-10.8,11.1v0.6c-0.3,0.5-0.5,1.1-0.5,1.8l0.2,37.1
						c0,2.8,0.3,14-1.7,21s-4,8-4.7,14.6c-0.5,4.6,2.3,11.8,8.7,13.4c4.5,1.2,11.3,0.8,15-2c2.4-1.8,3.7-6,4.4-9.8
						c0.2-0.9,0.3-1.8,0.4-2.6h23.6v17.7h-19.2c-2,0-3.7,0.8-5,2.1c-1.3,1.3-2.1,3-2.1,5c0,3.9,3.2,7.1,7.1,7.1h19.2v18.5l-36.3-0.1
						c-3.9,0-7.1,3.2-7.1,7.1c0,2,0.8,3.7,2.1,5s3,2.1,5,2.1h87.7c3.9,0,10,0,13-3c2.5-2.5,2.4-6.2,1-9c-2-4-6-7-14-6l-11,2.8
						c-3.3,0.8-6.7,1.2-10,1.1h-8.1v-18.6H281c1.9,0,3.7-0.8,5-2.1c1.3-1.3,2.1-3,2.1-5c0-3.9-3.2-7.1-7.1-7.1h-19.2V340H284.4z
						 M261.6,271.6h15.6c3.7,0,6.8,3.4,6.8,7.6v14h-22.3v-21.6H261.6z M261.6,307.4h22.3v18.5h-22.3V307.4z M239.3,325.9h-23.1
						v-18.5h23.1V325.9z M239.3,293.2h-23.1v-21.7h23.1V293.2z"/>
				</g>
				<g>
					<path class="st0" d="M511.6,263.9c0,0-6.9,11.2-14.9,16.1c-7.9,4.9-11.1,7.4-13,11c-1.6,3-4.2,10.6,2.1,15.7
						c5.1,4.1,12.6,5,22.6-4.1c10.7-9.7,17.1-23,21.1-34.5c2-5.6,4.9-23.5,4.8-27.2c-0.1-4-3.4-7.3-7.1-7.3l0,0
						c-2.1,0-4.4,0.9-5,2.9C519.3,246.2,513,261.3,511.6,263.9z"/>
					<path class="st0" d="M602.4,263.9c0,0,6.9,11.2,14.9,16.1s11.1,7.4,13,11c1.6,3,4.2,10.6-2.1,15.7c-5.1,4.1-12.6,5-22.6-4.1
						c-10.7-9.7-17.1-23-21.1-34.5c-2-5.6-4.9-23.5-4.8-27.2c0.1-4,3.4-7.3,7.1-7.3l0,0c2.1,0,4.4,0.9,5,2.9
						C594.7,246.2,601,261.3,602.4,263.9z"/>
					<path class="st0" d="M620,214.6c0,2.5-1,4.7-2.6,6.3s-3.8,2.6-6.3,2.6h-40.3v67.2h8.3c4.9,0,8.9,4,8.9,8.9c0,2.5-1,4.7-2.6,6.3
						c-1.6,1.6-3.8,2.6-6.3,2.6H571v25.3c0,2.9-1.2,11.6-5.7,14.3c-4.2,2.5-12.1,2.8-17.2,1.8c-7.3-1.5-10.5-7.9-10-12
						c0.8-5.9,3.1-6.8,5.4-13c0.4-1,0.6-2,0.9-3.1v-13.3H537c-4.9,0-8.9-4-8.9-8.9c0-2.5,1-4.7,2.6-6.3c1.6-1.6,3.8-2.6,6.3-2.6h7.4
						v-67.2H505c-4.9,0-8.9-4-8.9-8.9c0-2.5,1-4.7,2.6-6.3s3.8-2.6,6.3-2.6h39.4V198c0-7.3,5.9-13.2,13.2-13.2
						c3.6,0,6.9,1.5,9.3,3.9c2.4,2.4,3.9,5.7,3.9,9.3v7.7h40.3C616,205.7,620,209.7,620,214.6z"/>
				</g>
				<g>
					<path class="st0" d="M345,342.5c0,0-5,8.3-10.9,11.5s-8.2,4.9-9.6,7.5c-1.2,2.3-3,8.1,1.9,12.8c3.9,3.7,9.5,5.2,16.9-1.2
						c7.9-6.8,14-16.2,15.3-25.6c0.6-4.2,0.6-8,0.5-11c-0.2-3.2-2.6-6.2-5.4-6.5l0,0c-1.6-0.2-3,0.5-3.7,1.9
						C347.9,335.6,346,340.6,345,342.5z"/>
					<path class="st0" d="M373.1,334.2c-1.9,2.8-2.3,6.7-0.9,10.1c3.2,8.1,9.5,22.3,14.9,25.3c7.6,4.3,13.3,1.4,15.7-1.2
						c2.4-2.6,7.6-11.8,3.1-17.9c-3.1-4.2-15.7-13.2-23.1-18.2C379.4,330,375.4,330.8,373.1,334.2L373.1,334.2z"/>
					<path class="st0" d="M478.7,237.6h-36.4c0-1.3,0-2.1,0-2.5c0-0.3,0-0.6-0.1-0.9c9.1-3.1,21.8-8.1,25-13
						c5.1-7.7,2.3-13.9-0.4-16.6c-2.7-2.7-8.7-5-15.6-0.7c-4.8,3-15.2,15.7-21.1,23.2c-0.1,0.1-0.2,0.2-0.2,0.3
						c-1.6,1.3-2.7,3.1-2.6,5.9c0.3,5.9-0.7,25.8-2.6,35.5c-0.6,3.1-3,12.7-5.5,18.8c-2.3,5.4-5.5,13.7-9.2,20.3
						c-0.7-0.3-1.4-0.5-2.1-0.5h-8.4c0-0.3,0.1-0.7,0.1-1v-94.9h10.8c2.4,0,4.6-1,6.2-2.5c1.6-1.6,2.5-3.8,2.5-6.2
						c0-4.8-3.9-8.7-8.7-8.7h-10.8v-12.4c0-2.8-1.1-5.3-3-7.2c-1.8-1.8-4.4-3-7.2-3c-5.6,0-10.1,4.6-10.1,10.2v12.4h-23.5v-12.4
						c0-2.8-1.1-5.3-3-7.2c-1.8-1.8-4.4-3-7.2-3c-5.6,0-10.2,4.6-10.2,10.2v12.4h-10.8c-2.4,0-4.6,1-6.1,2.6
						c-1.6,1.6-2.5,3.8-2.5,6.1c0,4.8,3.9,8.7,8.7,8.7h10.8v93.9l-7.6-2.5c-7.3-1.2-11,2.3-12.8,7c-1.3,3.3-1.4,7.5,0.9,10.5
						c2.7,3.5,8.3,3.5,11.9,3.5h69.7c-2.5,3.9-3.7,7.9-0.4,11.6c8.2,9.2,20,0.4,25.4-6.2c11.4-13.8,15.4-34.6,18-52.6
						c0.8-5.5,1.3-15.6,1.5-24.4H457v89.1c0,3.9,3.2,7.1,7.1,7.1h1.9c2.7,0,5-1.5,6.2-3.7l0,0c0.6-1,0.9-2.2,0.9-3.4v-89.1h5.7
						c2,0,3.9-0.8,5.2-2.1c1.3-1.3,2.2-3.2,2.2-5.2C486,240.9,482.7,237.6,478.7,237.6z M355.7,211.5h23.5v25.1h-23.5V211.5z
						 M355.7,249.5h23.5v20.4h-23.5V249.5z M355.6,307.5c0-0.4,0.1-0.8,0.1-1.1v-23.7h23.5v23.7c0,0.4,0,0.7,0.1,1.1H355.6z"/>
				</g>
			</g>
			<g>
				<g>
					<path class="st1" d="M70.1,381c-3,0.4-6,0.5-9,0.3c-3.1-0.1-6.2-0.5-9.4-1.3s-6.4-1.9-9.6-3.6c-3.2-1.7-6.3-4.1-9.1-7.2
						l-1.7-1.8c-4.4-4.7-4.1-12.1,0.6-16.5s12.1-4.1,16.5,0.6c1.8,2,2.9,4.4,3.1,6.9c0.1,1.7,0.6,3.7,1.6,5.6s2.4,3.9,4.2,5.8
						c1.8,1.8,3.8,3.6,6,5.2s4.7,3.1,7.2,4.3h0.1c0.4,0.2,0.6,0.7,0.4,1.2C70.6,380.8,70.4,381,70.1,381z"/>
				</g>
				<g>
					<path class="st1" d="M71.2,390.1c-2.1,0.5-4.2,1.2-6.2,2c-2,0.9-4.1,1.9-6,3.2c-2,1.3-3.9,2.9-5.6,4.8c-1.7,2-3.2,4.4-4.4,7.1
						l-0.7,1.7c-1.8,4.3,0.2,9.2,4.5,11s9.2-0.2,11-4.5c0.8-1.8,0.8-3.7,0.4-5.5c-0.3-1.2-0.5-2.6-0.3-4.2s0.7-3.3,1.4-4.9
						c0.7-1.7,1.7-3.4,2.8-5c1.1-1.6,2.4-3.2,3.8-4.7l0,0c0.2-0.2,0.2-0.6,0-0.9C71.6,390.1,71.4,390.1,71.2,390.1z"/>
				</g>
				<g>
					<path class="st1" d="M45.5,391.5c-1.7,0-3.5,0.2-5.2,0.6c-1.7,0.3-3.5,0.8-5.3,1.5s-3.5,1.7-5.2,2.9c-1.7,1.3-3.3,2.9-4.6,4.9
						l-0.8,1.2c-2.1,3.1-1.4,7.3,1.7,9.4s7.3,1.4,9.4-1.7c0.9-1.3,1.3-2.8,1.2-4.2c-0.1-1,0-2.2,0.4-3.4c0.4-1.2,1.1-2.5,1.9-3.7
						c0.9-1.2,1.9-2.4,3-3.5s2.4-2.1,3.8-3.1l0,0c0.2-0.2,0.3-0.5,0.1-0.7C45.9,391.6,45.7,391.5,45.5,391.5z"/>
				</g>
			</g>
			<g>
				<path class="st2" d="M80.3,122.2c-0.9,0.2-1.7,0.8-2.3,1.7c-1.1,1.7-0.5,4,1.2,5.1l75.1,44.3c1.7,1.1,4,0.5,5.1-1.2
					s0.5-4-1.2-5.1l-75.1-44.3C82.2,122.1,81.2,122,80.3,122.2z"/>
				<path class="st2" d="M129.5,92.4c-0.7,0.2-1.3,0.5-1.9,1.1c-1.4,1.5-1.3,3.8,0.2,5.2l39.7,33.3c1.5,1.4,3.8,1.3,5.2-0.2
					s1.3-3.8-0.2-5.2l-39.7-33.3C131.9,92.4,130.6,92.1,129.5,92.4z"/>
				<path class="st2" d="M174.5,67.3c-0.5,0.1-0.9,0.3-1.3,0.6c-1.6,1.2-2,3.5-0.7,5.2l17.3,26.1c1.2,1.6,3.5,2,5.2,0.7
					c1.6-1.2,2-3.5,0.7-5.2l-17.3-26.1C177.4,67.5,175.9,67,174.5,67.3z"/>
				<path class="st2" d="M213.2,31.5c-0.2,0.1-0.5,0.1-0.7,0.2c-1.8,0.9-2.7,3-1.8,4.9l24.8,61.5c0.9,1.8,3,2.7,4.9,1.8
					c1.8-0.9,2.7-3,1.8-4.9l-24.8-61.5C216.7,31.9,214.9,31.1,213.2,31.5z"/>
				<path class="st2" d="M256.7,4.1c-2,0.5-3.2,2.5-2.7,4.5l17,69.2c0.5,2,2.5,3.2,4.5,2.7s3.2-2.5,2.7-4.5l-17-69.2
					C260.7,4.8,258.6,3.6,256.7,4.1z"/>
				<path class="st2" d="M309.5,25.1c-1.7,0.4-2.9,2-2.8,3.7l2.4,75.1c0.1,2,1.8,3.6,3.8,3.5s3.6-1.8,3.5-3.8L314,28.5
					c-0.1-2-1.8-3.6-3.8-3.5C310,25,309.7,25,309.5,25.1z"/>
				<path class="st2" d="M358.4,28.6c-1.4,0.3-2.6,1.5-2.8,3l-10,58.4c-0.3,2,1.1,3.9,3.1,4.2c2,0.3,3.9-1.1,4.2-3.1l10-58.4
					c0.3-2-1.1-3.9-3.1-4.2C359.4,28.5,358.9,28.5,358.4,28.6z"/>
				<path class="st2" d="M411.8,23.7c-1.2,0.3-2.2,1.1-2.6,2.3l-13.6,36.8c-0.7,1.9,0.3,4,2.2,4.7c1.9,0.7,4-0.3,4.7-2.2l13.6-36.8
					c0.7-1.9-0.3-4-2.2-4.7C413.2,23.5,412.5,23.5,411.8,23.7z"/>
				<path class="st2" d="M457.8,45.8c-0.9,0.2-1.7,0.8-2.3,1.7l-50.4,82.4c-1.1,1.7-0.5,4,1.2,5.1s4,0.5,5.1-1.2l50.4-82.4
					c1.1-1.7,0.5-4-1.2-5.1C459.7,45.7,458.7,45.6,457.8,45.8z"/>
				<path class="st2" d="M513.8,58.7c-0.7,0.2-1.3,0.5-1.9,1.1L449.2,128c-1.4,1.5-1.3,3.8,0.2,5.2s3.8,1.3,5.2-0.2l62.8-68.2
					c1.4-1.5,1.3-3.8-0.2-5.2C516.3,58.7,515,58.4,513.8,58.7z"/>
				<path class="st2" d="M532.1,113.5c-0.5,0.1-0.9,0.3-1.3,0.6l-23.2,17.1c-1.6,1.2-2,3.5-0.8,5.2c1.2,1.6,3.5,2,5.2,0.8l23.2-17.1
					c1.6-1.2,2-3.5,0.8-5.2C535,113.7,533.5,113.2,532.1,113.5z"/>
				<path class="st2" d="M560.5,154.1c-0.2,0-0.5,0.1-0.7,0.2l-35.5,11.4c-1.9,0.6-3,2.7-2.4,4.6c0.6,1.9,2.7,3,4.6,2.4l35.5-11.4
					c1.9-0.6,3-2.7,2.4-4.6C563.8,154.9,562.2,153.9,560.5,154.1z"/>
			</g>
			<g>
				<g>
					<path class="st0" d="M187.4,170c0,0.6,0,1.2,0,1.8C187.4,171.2,187.4,170.5,187.4,170z M192.5,163.6l0.7,12.3
						C193.3,173.4,193,169.3,192.5,163.6z M232.7,148.7l-2.9-11.4c-0.6-2.5-2-3.4-4.2-2.9l-21.7,5.5c-2.3,0.6-3.1,2.1-2.4,4.6
						l2.9,11.4c0.6,2.5,2.1,3.4,4.3,2.9l21.7-5.5C232.6,152.7,233.4,151.2,232.7,148.7z M209,144.4l14.2-3.6l0.5,1.9l-14.2,3.6
						L209,144.4z M211.1,152.4l-0.5-2l14.2-3.6l0.5,1.9L211.1,152.4z M245.3,184.1c-0.5-1.6-1.5-2.3-2.9-2.1c-2.9,0.6-5.6,0.9-8.1,1
						c3-3.1,5-5.8,6-8.1c0.9-1.4,1.2-3,0.8-4.7c-0.3-1.1-0.8-1.8-1.7-2.2c-1.1-0.2-2.3-0.1-3.7,0.2l-26.8,6.8
						c-1.4,0.4-1.9,1.6-1.5,3.5c0.6,2,1.6,2.8,3,2.6l1.2-0.3c0,0.3,0,0.6,0,1c0.3,1.2,0.9,2.1,1.9,2.8c1.2,0.8,2.6,1.6,4.1,2.3
						c-2,1.1-4,2-5.9,2.7c-1.7,0.8-2.3,2.1-1.8,4c0.3,0.9,0.7,1.6,1.4,2.2c0.6,0.6,1.5,0.7,2.6,0.4c4-1,8.4-3.3,13-6.7
						c3.3,0.5,6.6,0.6,10,0.4c2.4-0.3,4.6-0.7,6.7-1.2c1.2-0.3,1.9-1,2-2C245.7,186.2,245.6,185.3,245.3,184.1z M224.9,182.2
						c-2.4-0.6-4.9-1.6-7.5-2.9l12.7-3.2c0.4-0.1,0.7,0,0.8,0.3C230.8,177.5,228.8,179.4,224.9,182.2z"/>
					<path class="st0" d="M239.1,162.4l-1.6-6.1c-0.5-2-1.6-2.7-3.4-2.3l-27.6,7c-0.8-1.6-2.2-3.6-4-6c-1.2-1.4-2.1-2.5-3-3.1
						c-0.3-0.1-0.8-0.1-1.2,0.1c-0.4,0.1-0.7,0.2-1,0.4l-1.8-7.2c-0.3-1.3-0.9-2.1-1.8-2.6c-0.8-0.6-1.7-0.7-2.8-0.5
						c-1.1,0.3-1.9,0.9-2.2,1.7c-0.5,0.8-0.6,1.9-0.3,3.1l2.3,8.9c-0.1-0.1-0.2-0.1-0.3-0.2c-0.6-0.3-1.4-0.3-2.3-0.1
						c-0.8,0.2-1.2,0.8-1.2,1.8c0.2,2.2,0.4,4.3,0.5,6.3v0.3l0.1,5.2c0,0.1,0,0.4,0,0.7l0,0c0,0.5,0,1.1,0,1.8v0.1
						c0,0.7-0.1,1.4-0.3,2c-0.4,1.6-0.9,1.8-1,3.2c-0.1,1,0.6,2.6,2.1,2.9c1,0.2,2.4,0.4,3.6-0.2c1.7-0.9,1.6-3.1,1.5-3.8v-0.2
						l-0.7-12.3l8.2,32.4c0.3,1,0.7,1.8,1.4,2.3c0.9,0.8,1.9,1,3.1,0.7c1.3-0.3,2.2-1.1,2.6-2.1c0.3-0.8,0.3-1.7,0-2.7l-8.7-34.3
						c1,1.7,2.1,3.6,3.3,5.6c0.6,0.8,1.3,1.1,2.1,1l1.1,4.4c0.5,2,1.6,2.7,3.4,2.3l28.1-7.1C238.9,165.6,239.6,164.4,239.1,162.4z
						 M211.8,167.5c-0.1,0-0.2,0-0.2-0.1l-0.6-2.3c0-0.2,0-0.3,0.1-0.3l3.6-0.9l0.7,2.7L211.8,167.5z M220.1,165.4l-0.7-2.7l3.5-0.9
						l0.7,2.7L220.1,165.4z M232,162.3l-3.8,1l-0.7-2.7l3.8-1c0.1,0,0.2,0,0.3,0.2l0.6,2.3C232.2,162.2,232.2,162.3,232,162.3z"/>
					<path class="st0" d="M303.8,169.2c-0.2-0.7-0.7-1.5-1.5-2.2c-2.7-3.1-5.3-6.6-7.7-10.5c1.9-1.8,3.2-3.2,3.7-4.4
						c0.6-0.8,0.7-1.8,0.4-3c-0.3-1.1-0.7-1.8-1.3-2.3c-0.7-0.7-1.5-1-2.3-0.8c-0.4,0.1-0.7,0.3-1.1,0.5c-0.8,1.4-1.8,2.7-3,3.9
						c-1-1.8-2-3.8-3-5.9c2.5-1.3,4.2-2.5,5.1-3.4c0.9-0.7,1.1-1.8,0.8-3.3c-0.4-1.4-0.9-2.3-1.5-2.8s-1.4-0.7-2.3-0.5
						c-0.4,0.1-1,0.4-1.6,0.8c-4.6,2.7-9.5,5.1-14.5,7.2c-3.4,0.9-4.6,3.3-3.6,7.1l5.8,22.8c-0.4,0.2-0.7,0.4-1.1,0.6
						c-1,1.1-1.3,2.3-0.9,3.8c0.3,1.1,0.8,2,1.6,2.6c0.8,0.8,1.7,1,2.6,0.8c1-0.2,2.1-0.7,3.3-1.4c5.1-2.6,8.1-4.3,9.1-5.1
						c1.1-0.7,1.4-2,0.9-3.9c-0.3-1-0.9-2-1.8-2.7c-0.6-0.6-1.5-0.8-2.9-0.4c-1.4,0.7-2.8,1.4-4.2,2.2l-4.8-18.8
						c-0.2-0.8,0.2-1.4,1.2-1.7c1-0.4,2-0.8,2.9-1.2c0.2,0.5,0.3,0.9,0.5,1.3c1.7,4,3.8,8.2,6.1,12.5c3.4,5.6,6.4,9.8,9,12.5
						c1.1,0.8,2.2,1,3.4,0.7c1.3-0.3,2.1-1,2.4-2C303.9,171.2,304,170.2,303.8,169.2z"/>
					<path class="st0" d="M292.4,126.3c-0.2-1.1-0.5-2.2-1-2.9c-1-1.6-2.5-2.7-4.8-1.6l-2.9,2.1c-0.6,0.4-1.2,0.7-1.8,0.9l-9.3,2.4
						c0-1.1-0.1-2-0.3-2.8c-0.3-0.8-1-1.4-2-1.8c-0.9-0.3-1.9-0.3-3,0c-1.3,0.5-1.9,1.3-1.9,2.6c-0.1,2.2-0.3,4.5-0.6,7
						c-0.1,0.7-0.1,1.3-0.2,1.9c-0.4-0.9-0.8-1.4-1.3-1.6c-0.7-0.4-1.7-0.4-2.8-0.1l-3.5,0.9l-0.9-3.4c-0.3-1.2-0.9-2-1.9-2.5
						c-0.8-0.5-1.8-0.5-3.1-0.2s-2.2,0.8-2.6,1.6c-0.5,1-0.6,2.1-0.4,3.1l0.9,3.4l-4.6,1.2c-1.2,0.3-2,0.8-2.4,1.4
						c-0.6,0.7-0.6,1.9-0.3,3.4c0.4,1.5,1,2.5,1.9,3c0.8,0.5,1.7,0.6,2.8,0.3l1-0.3c2.3,9,3.7,15.6,4.2,19.7
						c0.6,6.4,0.5,11.9-0.4,16.6c-0.1,0.8,0,1.5,0.1,2c0.2,0.9,0.7,1.6,1.4,2.1c0.9,0.8,2,1,3.3,0.6c1.4-0.3,2.3-1.2,2.7-2.5
						c0.1-0.8,0.3-1.7,0.3-2.7c0.2,0.5,0.5,1,0.7,1.4c0.5,0.8,1.2,1.2,2,1.3c0.7,0.3,1.6,0.3,2.7,0l1.9-0.5c2.4-0.6,4.1-1.7,5.2-3.3
						c1-1.4,1.3-3.4,1.1-6.2c-0.6-3.5-1.7-8.4-3.3-14.7c-1.7-6.7-3-10.4-3.9-11.1c-0.9-1.2-2.6-1.4-5.2-0.8l-4.7,1.2
						c-0.4-1.6-0.9-3.3-1.3-5.1l8.2-2.1c0.2,0,0.4-0.1,0.6-0.2c0,0.3,0,0.6,0,0.8c0.3,1.3,0.9,2.1,1.7,2.6c1.3,0.7,2.4,0.9,3.3,0.6
						c1.4-0.3,2.3-1.1,2.5-2.3c0.6-1.8,1-4,1.4-6.6l17.9-4.5c1.3-0.3,2.2-0.9,2.6-1.7C292.7,128.4,292.7,127.5,292.4,126.3z
						 M259.9,155.1c0.9-0.2,1.5,0.1,1.7,1.1c1.9,7.5,3.1,12.7,3.6,15.5c0.1,1.1,0,1.9-0.3,2.3c-0.2,0.5-0.6,0.7-1.2,0.9
						c-0.4,0.1-1.1,0.1-1.8,0c-0.3,0-0.5,0-0.8,0.1l-1.3,0.3c-0.2,0.1-0.4,0.3-0.6,0.5c0-3.7-0.3-7.9-0.9-12.8c-0.1-2-0.5-4.5-1-7.3
						L259.9,155.1z"/>
				</g>
			</g>
			<g>
				<path class="st3" d="M628.2,433.2H28c-0.6,0-1-0.4-1-1s0.4-1,1-1h600.2c0.6,0,1,0.4,1,1S628.8,433.2,628.2,433.2z"/>
				<path class="st3" d="M628.2,497.1H28c-0.6,0-1-0.4-1-1s0.4-1,1-1h600.2c0.6,0,1,0.4,1,1S628.8,497.1,628.2,497.1z"/>
				<path class="st3" d="M64.4,449.8h4.8l1.3,16.1c0.1,2.3,0.2,4.1,0.3,6.7h0.1c0.4-2.6,0.8-4.4,1.2-6.7l2.1-9h3.4l2,9
					c0.5,2.3,0.8,4,1.2,6.7H81c0.1-2.6,0.1-4.4,0.3-6.7l1.2-16.1H87l-3.4,27.7h-5.1l-2-9.8c-0.3-1.7-0.6-3.5-0.8-5.1h-0.1
					c-0.2,1.7-0.4,3.4-0.8,5.1l-1.9,9.8H68L64.4,449.8z"/>
				<path class="st3" d="M101.4,449.9h-5.3L88,477.6h4.6l2-7.5h8.4l1.9,7.5h4.8L101.4,449.9z M95.5,466.2l0.9-3.4
					c0.8-2.9,1.5-6.1,2.2-9.1h0.2c0.7,3.1,1.5,6.2,2.3,9.1l0.9,3.4H95.5z"/>
				<path class="st3" d="M113.2,449.9h4.7l6.7,15.6l2.3,5.9h0.1c-0.2-2.8-0.6-6.3-0.6-9.4v-12h4.3v27.7H126l-6.7-15.6l-2.3-5.9h-0.1
					c0.2,2.9,0.6,6.3,0.6,9.4v12.1h-4.3V449.9z"/>
				<path class="st3" d="M136.5,449.9h6.6c7.4,0,11.9,4.6,11.9,13.7c0,9.2-4.5,14-11.7,14h-6.8V449.9z M142.8,473.6
					c4.8,0,7.6-3.2,7.6-10s-2.8-9.7-7.6-9.7H141v19.7H142.8z"/>
				<path class="st3" d="M160.5,449.9h16.2v4.1H165v7.1h9.9v4.1H165v8.2h12.1v4.1h-16.5v-27.6H160.5z"/>
				<path class="st3" d="M195.6,466c3-1.1,5-3.7,5-7.9c0-6.2-4.1-8.2-9.3-8.2h-8.4v27.7h4.5v-10.8h3.7l5.4,10.8h5L195.6,466z
					 M190.9,462.8h-3.5v-9h3.5c3.5,0,5.3,1.1,5.3,4.3C196.2,461.2,194.3,462.8,190.9,462.8z"/>
				<path class="st3" d="M235.2,454h-7.9v-4.1h20.4v4.1h-7.9v23.6h-4.5V454H235.2z"/>
				<path class="st3" d="M251.8,449.9h4.5V461h8.6v-11.1h4.5v27.7h-4.5v-12.3h-8.6v12.3h-4.5L251.8,449.9L251.8,449.9z"/>
				<path class="st3" d="M288,466c3-1.1,5-3.7,5-7.9c0-6.2-4.1-8.2-9.3-8.2h-8.4v27.7h4.5v-10.8h3.7l5.4,10.8h5L288,466z
					 M279.9,453.8h3.5c3.5,0,5.3,1.1,5.3,4.3c0,3.1-1.9,4.7-5.3,4.7h-3.5V453.8z"/>
				<path class="st3" d="M296.9,463.6c0-9.1,4.1-14.2,9.9-14.2s9.9,5.1,9.9,14.2c0,9.3-4.1,14.5-9.9,14.5S296.9,472.9,296.9,463.6z
					 M312.1,463.6c0-6.4-2.1-9.9-5.3-9.9s-5.3,3.6-5.3,9.9c0,6.5,2.1,10.2,5.3,10.2S312.1,470.1,312.1,463.6z"/>
				<path class="st3" d="M321.1,467v-17.1h4.5v17.5c0,4.5,1.7,6.4,4.4,6.4c2.7,0,4.4-1.9,4.4-6.4v-17.5h4.3V467
					c0,7.6-3.2,11.1-8.8,11.1C324.4,478.1,321.1,474.6,321.1,467z"/>
				<path class="st3" d="M343.3,463.8c0-9.1,4.9-14.4,11.4-14.4c3.4,0,5.6,1.7,7.2,3.5l-2.5,3.1c-1.1-1.3-2.5-2.2-4.7-2.2
					c-4,0-6.8,3.8-6.8,10c0,6.3,2.4,10.1,6.9,10.1c1.3,0,2.7-0.4,3.4-1.2v-6h-4.3v-4h8.4v12.2c-1.6,1.7-4.5,3.3-7.7,3.3
					C348.2,478.1,343.3,473,343.3,463.8z"/>
				<path class="st3" d="M367.3,449.9h4.5V461h8.6v-11.1h4.5v27.7h-4.5v-12.3h-8.6v12.3h-4.5V449.9z"/>
				<path class="st4" d="M414.1,449.9h7.8c5.2,0,8.9,1.7,8.9,6.8c0,2.6-1.4,5.2-4.4,6v0.2c3.6,0.7,5.7,2.8,5.7,6.6
					c0,5.5-4,8.1-9.6,8.1H414v-27.7H414.1z M421.6,461.3c3.5,0,5-1.4,5-4c0-2.5-1.6-3.5-4.9-3.5h-3.1v7.5H421.6z M422.1,473.6
					c3.7,0,5.7-1.4,5.7-4.5c0-2.9-1.9-4.1-5.7-4.1h-3.5v8.6H422.1z"/>
				<path class="st4" d="M449.8,466c3-1.1,5-3.7,5-7.9c0-6.2-4.1-8.2-9.3-8.2h-8.4v27.7h4.5v-10.8h3.7l5.4,10.8h5L449.8,466z
					 M441.7,453.8h3.5c3.5,0,5.3,1.1,5.3,4.3c0,3.1-1.9,4.7-5.3,4.7h-3.5V453.8z"/>
				<path class="st4" d="M460.3,473.4h6.1V454h-6.1v-4.1h16.6v4.1h-6.1v19.4h6.1v4.1h-16.6V473.4z"/>
				<path class="st4" d="M482.4,474l2.6-3.4c1.9,1.9,4.4,3.2,7,3.2c2.9,0,4.5-1.4,4.5-3.4c0-2.5-1.7-3.1-4.2-4.3l-3.5-1.7
					c-2.6-1.1-5.4-3.3-5.4-7.3c0-4.4,3.6-7.8,8.8-7.8c3.1,0,6,1.3,8.1,3.5L498,456c-1.7-1.5-3.5-2.4-6-2.4c-2.4,0-4,1.2-4,3.2
					c0,2.2,2,2.9,4.3,3.9l3.3,1.6c3.2,1.4,5.5,3.5,5.5,7.5c0,4.5-3.4,8.3-9.3,8.3C488.2,478.1,484.9,476.6,482.4,474z"/>
				<path class="st4" d="M506.6,449.9h7.8c5.2,0,8.9,1.7,8.9,6.8c0,2.6-1.4,5.2-4.4,6v0.2c3.6,0.7,5.7,2.8,5.7,6.6
					c0,5.5-4,8.1-9.6,8.1h-8.5L506.6,449.9L506.6,449.9z M514,461.3c3.5,0,5-1.4,5-4c0-2.5-1.6-3.5-4.9-3.5H511v7.5H514z
					 M514.6,473.6c3.7,0,5.7-1.4,5.7-4.5c0-2.9-1.9-4.1-5.7-4.1H511v8.6H514.6z"/>
				<path class="st4" d="M540.6,449.9h-5.3l-8.2,27.7h4.6l1.9-7.5h8.4l1.9,7.5h4.8L540.6,449.9z M534.7,466.2l0.9-3.4
					c0.8-2.9,1.5-6.1,2.2-9.1h0.1c0.7,3.1,1.5,6.2,2.3,9.1l0.9,3.4H534.7z"/>
				<path class="st4" d="M552.3,449.9h4.7l6.7,15.6l2.3,5.9h0.1c-0.2-2.8-0.6-6.3-0.6-9.4v-12h4.3v27.7h-4.7l-6.7-15.6l-2.3-5.9H556
					c0.2,2.9,0.6,6.3,0.6,9.4v12.1h-4.3V449.9z"/>
				<path class="st4" d="M576.6,449.9h16.2v4.1h-11.7v7.1h9.9v4.1h-9.9v8.2h12.1v4.1h-16.5L576.6,449.9L576.6,449.9z"/>
				<polygon class="st3" points="45.7,457.5 47.8,461.8 52.5,462.5 49.1,465.8 49.9,470.5 45.7,468.3 41.5,470.5 42.3,465.8 
					38.9,462.5 43.6,461.8 				"/>
				<polygon class="st3" points="611.5,457.5 613.6,461.8 618.3,462.5 614.9,465.8 615.7,470.5 611.5,468.3 607.3,470.5 
					608.1,465.8 604.7,462.5 609.4,461.8 				"/>
			</g>
		</g>
	</g>
</g>
</svg>
