<?xml version="1.0" encoding="utf-8"?>
<!-- Generator: Adobe Illustrator 22.0.1, SVG Export Plug-In . SVG Version: 6.00 Build 0)  -->
<svg version="1.1" id="圖層_1" xmlns="http://www.w3.org/2000/svg" xmlns:xlink="http://www.w3.org/1999/xlink" x="0px" y="0px"
	 viewBox="0 0 292 24.4" style="enable-background:new 0 0 292 24.4;" xml:space="preserve">
<style type="text/css">
	.st0{fill:#FFDA00;}
</style>
<path class="st0" d="M254,24.4c-9.7,0-14.6-5.3-19.3-10.4c-4.4-4.7-8.5-9.2-16.8-9.2s-12.4,4.5-16.8,9.2
	c-4.7,5.1-9.5,10.4-19.3,10.4s-14.6-5.3-19.3-10.4c-4.4-4.7-8.5-9.2-16.8-9.2s-12.4,4.5-16.8,9.2c-4.7,5.1-9.5,10.4-19.3,10.4
	c-9.7,0-14.6-5.3-19.3-10.4C86.4,9.4,82.2,4.9,74,4.9c-8.3,0-12.4,4.5-16.8,9.2c-4.7,5.1-9.5,10.4-19.3,10.4
	c-9.7,0-14.6-5.3-19.3-10.4c-4.4-4.7-8.5-9.3-16.8-9.3c-0.9,0-2.8,0-2.8,0L-1,0c0,0,2.4,0,2.9,0c9.7,0,14.6,5.3,19.3,10.4
	c4.4,4.7,8.5,9.2,16.8,9.2s12.4-4.5,16.8-9.2C59.4,5.3,64.2,0,74,0s14.6,5.3,19.3,10.4c4.4,4.7,8.5,9.2,16.8,9.2s12.4-4.5,16.8-9.2
	C131.4,5.3,136.3,0,146,0s14.6,5.3,19.3,10.4c4.4,4.7,8.5,9.2,16.8,9.2s12.4-4.5,16.8-9.2C203.5,5.3,208.3,0,218,0
	s14.6,5.3,19.3,10.4c4.4,4.7,8.5,9.2,16.8,9.2c8.3,0,12.4-4.5,16.8-9.2C275.5,5.3,280.4,0,290.1,0c0.9,0,2.9,0,2.9,0l0,4.8
	c0,0-1.9,0-2.9,0c-8.3,0-12.4,4.5-16.8,9.2C268.6,19.2,263.8,24.4,254,24.4z"/>
</svg>
